/* XPM */
static char *right1_tomoyo_mask[] = {
/* columns rows colors chars-per-pixel */
"32 32 2 1 ",
"  c white",
". c black",
/* pixels */
"                                ",
"                                ",
"                                ",
"                .........       ",
"              .............     ",
"             ...............    ",
"            .................   ",
"            .................   ",
"           ..................   ",
"           ..................   ",
"          ...................   ",
"          ..................    ",
"         .................      ",
"         .................      ",
"        ...................     ",
"        ...................     ",
"       ...................      ",
"       ..................       ",
"        ................        ",
"         ............           ",
"          ............          ",
"           ...........          ",
"              ........          ",
"            .........           ",
"         .............          ",
"         ..............         ",
"         ...............        ",
"          ..............        ",
"           ............         ",
"            ..........          ",
"              ........          ",
"                    ..          "
};
