/* XPM */
static char *mati3_tomoyo[] = {
/* columns rows colors chars-per-pixel */
"32 32 2 1 ",
"  c white",
". c black",
/* pixels */
"                                ",
"                                ",
"               .......          ",
"             ...........        ",
"            ....     ....       ",
"            ... ..... ...       ",
"           ... ....... ...      ",
"           ...............      ",
"           ...............      ",
"           ...............      ",
"           ..... .... ....      ",
"           ...         ...      ",
"           ... ..   .. ...      ",
"           ...         ...      ",
"           ...   ...   ...      ",
"           ...   . .   ...      ",
"           ....   .   ....      ",
"           ......   ......      ",
"           ....  ...  ....      ",
"           ...  . . .  ...      ",
"           ...  . . .  ...      ",
"           ...   . .   ...      ",
"              ...   ...         ",
"              .       .         ",
"             .    .    .        ",
"            .           .       ",
"           .             .      ",
"          ..      .   .  ..     ",
"           ... .   .   ...      ",
"             ...........        ",
"                . . .           ",
"                .....           "
};
