/* XPM */
static char *kaki1_sakura_mask[] = {
/* columns rows colors chars-per-pixel */
"32 32 2 1 ",
"  c white",
". c black",
/* pixels */
"      ...               ...     ",
"      .......... ..........     ",
"     ......................     ",
"    ......................      ",
"   .......................      ",
"  .... ...................      ",
" .....  .................       ",
" .....  .................       ",
"......  .................       ",
"..   .. .................       ",
".     ...................       ",
"       ..................       ",
"        .................       ",
"         ...............        ",
"          ..............        ",
"         ...............        ",
"         ...............  .     ",
"         ..............   .     ",
"          ............    .     ",
"           ............  ..     ",
"            ...........  .      ",
"            ........... ..      ",
"           ...........  .       ",
"          ..............        ",
"         ...............        ",
"        .................       ",
"         ...............        ",
"          ...............       ",
"            .........   ..      ",
"              .....      .      ",
"              .....             ",
"              .....             "
};
