/* XPM */
static char *mati2_sakura[] = {
/* columns rows colors chars-per-pixel */
"32 32 2 1 ",
"  c white",
". c black",
/* pixels */
"                                ",
"              .. ..             ",
"     ........   .   ........    ",
"     .......   .     .......    ",
"      .  ..       ..  ..  .     ",
"      .  .          .  .  .     ",
"       . .          .  . .      ",
"        .      .  .  .  .       ",
"        .      .   . .  .       ",
"        .  .  .  . . .  .       ",
"        .  .  .  . . .  .       ",
"        . . . .   . ..  .       ",
"        . .          .  .       ",
"        .  .  .   .  .  .       ",
"         . .  .   .  . .        ",
"         . .         . . .      ",
"         .  .       .  . .      ",
"          .  ..   ..  .  .      ",
"            .  ...  .    .      ",
"           ..  ...  ..   .      ",
"           .... . ....  .       ",
"           ....   ....  .       ",
"           ...  .  ... .        ",
"          .           .         ",
"         .      .      .        ",
"        .               .       ",
"         .             .        ",
"          ..         ..         ",
"            .........           ",
"              .....             ",
"              . . .             ",
"              .....             "
};
